<svg xmlns="http://www.w3.org/2000/svg" width="33" height="33" viewBox="0 0 33 33">
  <g id="Group_39717" data-name="Group 39717" transform="translate(-0.435 -0.223)">
    <circle id="Ellipse_17" data-name="Ellipse 17" cx="16.5" cy="16.5" r="16.5" transform="translate(0.435 0.223)" fill="#00100b"/>
    <g id="noun_Hotel_3720489" transform="translate(6.435 7.223)">
      <path id="Path_134" data-name="Path 134" d="M23.875,24.764a5.844,5.844,0,1,0,5.844,5.844A5.85,5.85,0,0,0,23.875,24.764Zm0,10.881a5.038,5.038,0,1,1,5.038-5.038A5.043,5.043,0,0,1,23.875,35.645Z" transform="translate(-13.8 -18.19)" fill="#fff"/>
      <path id="Path_135" data-name="Path 135" d="M25.741,28.41a4.064,4.064,0,1,0,4.064,4.064A4.068,4.068,0,0,0,25.741,28.41Zm0,7.321A3.258,3.258,0,1,1,29,32.473,3.261,3.261,0,0,1,25.741,35.731Z" transform="translate(-15.666 -20.056)" fill="#fff"/>
      <path id="Path_136" data-name="Path 136" d="M45.3,13.208a.4.4,0,0,0-.4.4v4.1a.74.74,0,0,1-.739.739H42.543a.74.74,0,0,1-.739-.739v-4.1a.4.4,0,0,0-.806,0v4.1a1.544,1.544,0,0,0,1.285,1.518l-.247,9.964a1.315,1.315,0,1,0,2.629,0l-.247-9.964A1.544,1.544,0,0,0,45.7,17.709v-4.1A.4.4,0,0,0,45.3,13.208Zm-1.586,16.37a.519.519,0,0,1-.728,0,.5.5,0,0,1-.144-.368l.246-9.957h.523l.247,9.957A.5.5,0,0,1,43.714,29.578Z" transform="translate(-25.553 -12.276)" fill="#fff"/>
      <path id="Path_137" data-name="Path 137" d="M45.394,17.037a.4.4,0,0,0,.4-.4V13.611a.4.4,0,0,0-.806,0v3.023A.4.4,0,0,0,45.394,17.037Z" transform="translate(-27.596 -12.277)" fill="#fff"/>
      <path id="Path_138" data-name="Path 138" d="M14.241,15.343c0-1.912-1-4.043-2.438-4.043s-2.438,2.131-2.438,4.043a3.233,3.233,0,0,0,1.37,2.919l-.247,9.951a1.314,1.314,0,0,0,2.259.947,1.293,1.293,0,0,0,.369-.947l-.243-9.952A3.234,3.234,0,0,0,14.241,15.343Zm-4.069,0c0-1.6.823-3.237,1.632-3.237s1.632,1.634,1.632,3.237c0,1.433-.656,2.4-1.632,2.4S10.171,16.777,10.171,15.343Zm2.138,12.892a.5.5,0,0,1-.142.364.519.519,0,0,1-.729,0,.505.505,0,0,1-.145-.369l.241-9.7a2.251,2.251,0,0,0,.537,0Z" transform="translate(-9.365 -11.3)" fill="#fff"/>
    </g>
  </g>
</svg>
