<svg xmlns="http://www.w3.org/2000/svg" width="33" height="33" viewBox="0 0 33 33">
  <g id="Group_17" data-name="Group 17" transform="translate(0.18 -0.223)">
    <circle id="Ellipse_18" data-name="Ellipse 18" cx="16.5" cy="16.5" r="16.5" transform="translate(-0.18 0.223)" fill="#00100b"/>
    <g id="noun_Flight_2335320" transform="translate(5.82 6.223)">
      <g id="Group_16" data-name="Group 16" transform="translate(0 0)">
        <g id="Group_15" data-name="Group 15" transform="translate(0 0)">
          <path id="Path_139" data-name="Path 139" d="M71.154,64.65l-3.127,1.356c-.147.064-.293.128-.44.19.229.133.46.263.69.4V65.044c-.046.108-.089.215-.135.323q.625-.594,1.253-1.189c.245-.231.49-.465.733-.7a.655.655,0,0,0,.289-.515c-.016-.515-.044-1.029-.064-1.544-.034-.8-.066-1.6-.1-2.4-.021-.479-.032-.96-.06-1.441v-.023a.463.463,0,0,0-.58-.442l-.818.275c-.653.218-1.3.438-1.956.655l-2.376.8q-1.027.344-2.055.69c-.33.11-.671.206-1,.334l-.014,0,.58.442V58.483l-.227.4.527-.385c.442-.325.887-.648,1.329-.974q.893-.653,1.785-1.308l1.874-1.374,1.6-1.175.967-.708c.062-.046.124-.089.183-.135.218-.167.181-.428.181-.669V47.794c0-.06.007-.117.009-.174s-.007.044-.007.044a.315.315,0,0,0,.007-.046c.007-.037.014-.071.023-.105.016-.06.034-.117.055-.176.025-.078-.044.085.007-.016.016-.032.032-.064.048-.094.03-.053.064-.1.1-.153.046-.071-.053.062,0,0,.023-.027.046-.053.069-.078.044-.048.092-.092.14-.135l.034-.027c.039-.034-.032.03-.034.025a.444.444,0,0,1,.087-.06q.082-.052.172-.1l.041-.018c.046-.027-.041.021-.039.016s.087-.032.1-.037q.089-.027.179-.048c.018,0,.119-.018.046-.009s-.011,0,0,0,.053,0,.078,0c.053,0,.108,0,.16,0l.094.007c.053,0-.044-.007-.044-.007a.584.584,0,0,0,.062.011,1.866,1.866,0,0,1,.195.05c.03.009.057.023.087.03.05.016-.044-.016-.039-.018s.048.023.055.025a1.744,1.744,0,0,1,.158.087l.076.05c.073.048-.021-.018-.021-.018s.039.032.046.039a1.666,1.666,0,0,1,.131.124.822.822,0,0,1,.06.066l.027.034c.039.044-.044-.071-.016-.021s.073.108.105.165l.041.08c.007.014.011.027.018.041.027.053-.027-.082-.011-.025s.041.115.057.174c.009.034.018.071.025.105a.323.323,0,0,0,.009.046c.014.062-.007-.092,0-.03.025.431.009.864.009,1.294v3.157c0,.128-.007.261,0,.389a.525.525,0,0,0,.245.41c.03.021.06.041.087.062l.364.259,1.313.93q.9.636,1.8,1.271l1.9,1.347q.814.577,1.626,1.155l.978.694.135.1-.227-.4v2l.58-.442-.816-.268c-.655-.218-1.313-.433-1.968-.651l-2.371-.783c-.683-.227-1.368-.451-2.05-.678-.332-.11-.664-.234-1-.33l-.014,0a.461.461,0,0,0-.58.442c-.016.4-.034.795-.05,1.194-.034.793-.066,1.583-.1,2.376-.025.584-.048,1.166-.073,1.75a1.112,1.112,0,0,0,0,.124.535.535,0,0,0,.188.38l.619.589c.479.456.951.921,1.439,1.365l.03.027c-.046-.108-.089-.215-.135-.323V66.6c.229-.133.46-.263.69-.4l-3.127-1.356c-.147-.064-.293-.128-.44-.19a.471.471,0,0,0-.628.165.463.463,0,0,0,.165.628L74.288,66.8c.147.064.293.128.44.19a.487.487,0,0,0,.463,0,.462.462,0,0,0,.227-.4V65.131a.582.582,0,0,0-.156-.431c-.5-.5-1.031-.978-1.544-1.468-.192-.181-.383-.364-.575-.545.046.108.089.215.135.323.025-.614.053-1.23.078-1.844l.124-2.928.027-.674-.58.442.816.268c.655.218,1.313.433,1.968.651l2.371.783c.683.227,1.368.451,2.05.678.332.11.664.234,1,.33l.014,0a.461.461,0,0,0,.58-.442V58.291a.492.492,0,0,0-.227-.4l-.023-.016c-.467-.337-.942-.667-1.411-1q-1.347-.955-2.694-1.908t-2.678-1.9c-.463-.328-.919-.674-1.393-.987l-.021-.014.227.4v-4c0-.268.016-.545-.007-.813a2.114,2.114,0,0,0-3.138-1.7,2.081,2.081,0,0,0-.893.978,2.262,2.262,0,0,0-.19.9v4.634l.227-.4c-.373.275-.749.548-1.123.822l-2.545,1.865-2.728,2L61.409,58l-.121.089a.49.49,0,0,0-.231.408c0,.062,0,.124,0,.186v1.64a.462.462,0,0,0,.58.442l.818-.275c.653-.218,1.3-.438,1.956-.655l2.376-.8q1.027-.344,2.055-.69c.33-.11.671-.206,1-.334l.014,0-.58-.442c.025.614.053,1.23.078,1.844l.124,2.928.027.674c.046-.108.089-.215.135-.323L68.247,64l-.694.66a.559.559,0,0,0-.192.4c0,.14,0,.282,0,.422v1.106a.462.462,0,0,0,.227.4.487.487,0,0,0,.463,0l3.127-1.356c.147-.064.293-.128.44-.19a.462.462,0,0,0,.165-.628A.473.473,0,0,0,71.154,64.65Z" transform="translate(-61.056 -45.682)" fill="#fff"/>
        </g>
      </g>
    </g>
  </g>
</svg>
