<svg xmlns="http://www.w3.org/2000/svg" width="17" height="19.429" viewBox="0 0 17 19.429">
  <path id="calendar-alt" d="M5.616,10.929H4.1a.457.457,0,0,1-.455-.455V8.955A.457.457,0,0,1,4.1,8.5H5.616a.457.457,0,0,1,.455.455v1.518A.457.457,0,0,1,5.616,10.929Zm4.1-.455V8.955A.457.457,0,0,0,9.259,8.5H7.741a.457.457,0,0,0-.455.455v1.518a.457.457,0,0,0,.455.455H9.259A.457.457,0,0,0,9.714,10.473Zm3.643,0V8.955A.457.457,0,0,0,12.9,8.5H11.384a.457.457,0,0,0-.455.455v1.518a.457.457,0,0,0,.455.455H12.9A.457.457,0,0,0,13.357,10.473ZM9.714,14.116V12.6a.457.457,0,0,0-.455-.455H7.741a.457.457,0,0,0-.455.455v1.518a.457.457,0,0,0,.455.455H9.259A.457.457,0,0,0,9.714,14.116Zm-3.643,0V12.6a.457.457,0,0,0-.455-.455H4.1a.457.457,0,0,0-.455.455v1.518a.457.457,0,0,0,.455.455H5.616A.457.457,0,0,0,6.071,14.116Zm7.286,0V12.6a.457.457,0,0,0-.455-.455H11.384a.457.457,0,0,0-.455.455v1.518a.457.457,0,0,0,.455.455H12.9A.457.457,0,0,0,13.357,14.116ZM17,4.25V17.607a1.822,1.822,0,0,1-1.821,1.821H1.821A1.822,1.822,0,0,1,0,17.607V4.25A1.822,1.822,0,0,1,1.821,2.429H3.643V.455A.457.457,0,0,1,4.1,0H5.616a.457.457,0,0,1,.455.455V2.429h4.857V.455A.457.457,0,0,1,11.384,0H12.9a.457.457,0,0,1,.455.455V2.429h1.821A1.822,1.822,0,0,1,17,4.25ZM15.179,17.379V6.071H1.821V17.379a.228.228,0,0,0,.228.228h12.9A.228.228,0,0,0,15.179,17.379Z" fill="#43554f"/>
</svg>
