<svg xmlns="http://www.w3.org/2000/svg" width="20.246" height="36" viewBox="0 0 20.246 36">
  <path id="dollar-sign" d="M14.743,16.411,7.149,14.189a2.074,2.074,0,0,1,.584-4.064h4.662a4.292,4.292,0,0,1,2.4.738,1.1,1.1,0,0,0,1.371-.141l2.447-2.391a1.14,1.14,0,0,0-.127-1.723A9.942,9.942,0,0,0,12.409,4.5V1.125A1.128,1.128,0,0,0,11.284,0H9.034A1.128,1.128,0,0,0,7.909,1.125V4.5H7.733A7.7,7.7,0,0,0,.069,12.909,8.049,8.049,0,0,0,5.961,19.7l7.207,2.109a2.074,2.074,0,0,1-.584,4.064H7.923a4.292,4.292,0,0,1-2.4-.738,1.1,1.1,0,0,0-1.371.141L1.7,27.668a1.14,1.14,0,0,0,.127,1.723A9.942,9.942,0,0,0,7.909,31.5v3.375A1.128,1.128,0,0,0,9.034,36h2.25a1.128,1.128,0,0,0,1.125-1.125V31.486a7.942,7.942,0,0,0,7.432-5.112,7.721,7.721,0,0,0-5.1-9.963Z" transform="translate(-0.036)" fill="#6690ef"/>
</svg>
