<svg id="Layer_2" data-name="Layer 2" xmlns="http://www.w3.org/2000/svg" width="17" height="17" viewBox="0 0 17 17">
  <g id="hash">
    <rect id="Rectangle_22484" data-name="Rectangle 22484" width="17" height="17" transform="translate(17 17) rotate(180)" fill="#43554f" opacity="0"/>
    <path id="Path_78009" data-name="Path 78009" d="M15.116,10.832H12.051l.52-2.851h2.544a.713.713,0,0,0,0-1.425H12.828L13.32,3.84a.746.746,0,1,0-1.468-.264l-.535,2.979H8.552L9.044,3.84a.746.746,0,1,0-1.468-.264L7.041,6.556H3.713a.713.713,0,1,0,0,1.425H6.777l-.52,2.851H3.713a.713.713,0,1,0,0,1.425H6l-.492,2.715a.713.713,0,0,0,.6.848.713.713,0,0,0,.869-.584l.535-2.979h2.765l-.492,2.715a.746.746,0,1,0,1.468.264l.535-2.979h3.328a.713.713,0,0,0,0-1.425Zm-7.341,0L8.3,7.981h2.758l-.52,2.851Z" transform="translate(-0.862 -0.854)" fill="#43554f"/>
  </g>
</svg>
