<svg xmlns="http://www.w3.org/2000/svg" width="20.814" height="27.66" viewBox="0 0 20.814 27.66">
  <g id="baseline-location_on-24px" transform="translate(-0.333 49.923)">
    <path id="Path_707" data-name="Path 707" d="M15.407,2C9.653,2,5,6.329,5,11.681,5,18.942,15.407,29.66,15.407,29.66S25.814,18.942,25.814,11.681C25.814,6.329,21.161,2,15.407,2Zm0,13.139a3.6,3.6,0,0,1-3.717-3.458,3.6,3.6,0,0,1,3.717-3.458,3.6,3.6,0,0,1,3.717,3.458A3.6,3.6,0,0,1,15.407,15.139Z" transform="translate(-4.667 -51.923)" fill="#6690ef"/>
  </g>
</svg>
