<svg id="Layer_2" data-name="Layer 2" xmlns="http://www.w3.org/2000/svg" xmlns:xlink="http://www.w3.org/1999/xlink" width="17" height="17" viewBox="0 0 17 17">
  <defs>
    <clipPath id="clip-path">
      <rect id="Rectangle_22484" data-name="Rectangle 22484" width="17" height="17" transform="translate(17 17) rotate(180)" fill="#43554f" opacity="0"/>
    </clipPath>
  </defs>
  <g id="hash">
    <g id="Mask_Group_2" data-name="Mask Group 2" clip-path="url(#clip-path)">
      <g id="Layer_2-2" data-name="Layer 2">
        <g id="phone">
          <rect id="Rectangle_22487" data-name="Rectangle 22487" width="17" height="17" fill="#43554f" opacity="0"/>
          <path id="Path_78011" data-name="Path 78011" d="M12.325,15.583A10.922,10.922,0,0,1,1.417,4.675,3.258,3.258,0,0,1,4.675,1.417a2.791,2.791,0,0,1,.545.05,2.685,2.685,0,0,1,.51.128.708.708,0,0,1,.46.531l.97,4.25a.708.708,0,0,1-.184.652c-.092.1-.1.106-.97.56a7.02,7.02,0,0,0,3.45,3.464c.46-.878.468-.885.567-.977a.708.708,0,0,1,.652-.184l4.25.97a.708.708,0,0,1,.51.46,3.074,3.074,0,0,1,.135.517,3.379,3.379,0,0,1,.043.538A3.258,3.258,0,0,1,12.325,15.583ZM4.675,2.833A1.849,1.849,0,0,0,2.833,4.675a9.5,9.5,0,0,0,9.492,9.492,1.849,1.849,0,0,0,1.842-1.842v-.234l-3.287-.758-.205.39c-.319.616-.552,1.063-1.147.822A8.394,8.394,0,0,1,4.441,7.437c-.255-.552.227-.808.836-1.126l.39-.191L4.909,2.833Z" fill="#43554f"/>
        </g>
      </g>
    </g>
  </g>
</svg>
