<svg xmlns="http://www.w3.org/2000/svg" width="20.489" height="20.493" viewBox="0 0 20.489 20.493">
  <path id="globe" d="M13.9,14.28C13.3,10.591,11.891,8,10.246,8S7.189,10.591,6.59,14.28ZM6.28,18.246a25.9,25.9,0,0,0,.136,2.644h7.656a25.9,25.9,0,0,0,.136-2.644,25.9,25.9,0,0,0-.136-2.644H6.416A25.9,25.9,0,0,0,6.28,18.246ZM19.7,14.28a10.268,10.268,0,0,0-6.528-5.85,13.945,13.945,0,0,1,2.066,5.85ZM7.321,8.43A10.261,10.261,0,0,0,.8,14.28H5.26A13.888,13.888,0,0,1,7.321,8.43ZM20.138,15.6H15.4c.087.868.136,1.756.136,2.644s-.05,1.777-.136,2.644h4.735a10.158,10.158,0,0,0,.355-2.644,10.335,10.335,0,0,0-.351-2.644ZM4.958,18.246c0-.888.05-1.777.136-2.644H.355a10.017,10.017,0,0,0,0,5.288H5.09C5.008,20.023,4.958,19.135,4.958,18.246ZM6.59,22.213c.6,3.69,2.012,6.28,3.656,6.28S13.3,25.9,13.9,22.213Zm6.582,5.85a10.278,10.278,0,0,0,6.528-5.85H15.237A13.945,13.945,0,0,1,13.172,28.063ZM.8,22.213a10.268,10.268,0,0,0,6.528,5.85,13.945,13.945,0,0,1-2.066-5.85H.8Z" transform="translate(0 -8)" fill="#6690ef"/>
</svg>
